<svg xmlns="http://www.w3.org/2000/svg" version="1.1" xmlns:xlink="http://www.w3.org/1999/xlink" xmlns:svgjs="http://svgjs.dev/svgjs" width="100%" height="100%" viewBox="0 0 1000 600"><rect width="1000" height="600" x="0" y="0" fill="#f7f7f7"/><g><circle r="166.66666666666666" cx="471.6374308268229" cy="493.85964839247015" fill="#006838" transform="matrix(0.4098753292461891,0,0,0.4098753292461892,0,97.5791028805199)"/><path d="M491.75008097616666 498.19365168091196L447.32304799095346 498.19365168091196L447.32304799095346 555.1084419536355Q447.32304799095346 562.7186281594359 444.0321566587154 565.8038387834091Q440.7412653264774 568.8596664490588 434.1888656203249 568.8596664490588L434.1888656203249 568.8596664490588Q424.4631064152286 568.8596664490588 424.4631064152286 558.2818014525794L424.4631064152286 558.2818014525794L424.4631064152286 429.4375292037962Q424.4631064152286 418.8596642073169 434.1888656203249 418.8596642073169L434.1888656203249 418.8596642073169L506.1183475963844 418.8596642073169Q512.2593858860072 418.8596642073169 515.5502772182451 420.3581950818181Q518.8117855921596 421.8273429979958 518.8117855921596 426.7049140797057L518.8117855921596 426.7049140797057L518.8117855921596 442.9830729909545Q518.8117855921596 453.5609379874338 509.73245147018156 453.5609379874338L509.73245147018156 453.5609379874338Q503.7970938888237 453.5609379874338 500.62373438987987 450.50511032178423Q497.4503748909361 447.4198996978111 497.4503748909361 439.8097134920107L497.4503748909361 439.8097134920107L497.4503748909361 430.08395428691443L447.32304799095346 430.08395428691443L447.32304799095346 486.5580001847847L491.75008097616666 486.5580001847847Q497.65605559920095 486.5580001847847 497.65605559920095 492.49335776614254L497.65605559920095 492.49335776614254Q497.65605559920095 498.19365168091196 491.75008097616666 498.19365168091196L491.75008097616666 498.19365168091196Z " fill="#f7f7f7" transform="matrix(0.4098753292461891,0,0,0.4098753292461892,0,97.5791028805199)"/><path d="M810.4532368777056 464.44629158534764L810.4532368777056 464.44629158534764Q804.9159562994779 464.44629158534764 801.9554300497323 461.59541445596307Q798.9949037999868 458.7171250464882 798.9949037999868 451.61734450311695L798.9949037999868 451.61734450311695L798.9949037999868 440.5701956267516Q795.6506056289779 439.7752395041348 792.0870092172472 439.3914675828715Q788.5234128055164 438.9802833815179 784.5760444725223 438.9802833815179L784.5760444725223 438.9802833815179Q766.4291150527857 438.9802833815179 755.1900802157888 454.2763356718699Q743.9236330987015 469.5723879622219 743.9236330987015 500.57567674427946L743.9236330987015 500.57567674427946Q743.9236330987015 523.2730446589953 749.0497294755758 535.9101057805944Q754.2032381325403 548.5197546221032 763.6604747636718 553.5636141587067Q773.1451236748937 558.6074736953103 785.9740707571244 558.6074736953103L785.9740707571244 558.6074736953103Q792.0870092172472 558.6074736953103 798.8030178393551 557.0175614500765Q805.519026461463 555.4276492048427 811.8238508822175 552.8783071564508L811.8238508822175 552.8783071564508L815.5793332545799 551.288394911217Q815.9631051758431 551.0965089505853 816.3742893771968 550.9868598302245Q816.75806129846 550.9046229899539 817.1418332197234 550.9046229899539L817.1418332197234 550.9046229899539Q819.3348156269423 550.9046229899539 820.5957805110932 552.7686580360898Q821.8841576753343 554.6601053623162 821.8841576753343 556.8256754894448L821.8841576753343 556.8256754894448Q821.8841576753343 559.5943157785587 819.3348156269423 560.7730438224389L819.3348156269423 560.7730438224389L815.9631051758431 562.1436578269507Q808.6714386718403 565.1041840766964 800.4751669248595 566.9956314029225Q792.2788951778788 568.8596664490588 780.4367901788967 568.8596664490588L780.4367901788967 568.8596664490588Q759.9049923913094 568.8596664490588 746.8841593484472 560.5811578618072Q733.8633263055847 552.2752369944656 727.750387845462 536.8969478638429Q721.6374493853392 521.4912464531299 721.6374493853392 500.16449254292587L721.6374493853392 500.16449254292587Q721.6374493853392 475.49344046171296 729.614422891598 459.7039671297368Q737.6188086779471 443.9144937977605 751.3249487230654 436.43094133312593Q765.0585010482739 428.9199765884011 782.0267024241303 428.9199765884011L782.0267024241303 428.9199765884011Q789.5102548887648 428.9199765884011 796.7196845524971 429.90681867164966Q803.9291142162294 430.8936607548981 810.837008798969 433.05923088202684L810.837008798969 433.05923088202684Q815.3874472939483 434.4572571666289 817.1418332197234 436.32129221276494Q818.9236314255887 438.2127395389913 818.9236314255887 442.73576575388034L818.9236314255887 442.73576575388034L818.9236314255887 454.5778707528625Q818.9236314255887 464.44629158534764 810.4532368777056 464.44629158534764ZM880.9027967096135 568.8596664490588L880.9027967096135 568.8596664490588Q859.9872270007631 568.8596664490588 847.8435869207883 556.7160263690839Q835.6999468408135 544.5723862891091 835.6999468408135 519.3256763260013L835.6999468408135 519.3256763260013Q835.6999468408135 501.9462907487913 841.4291133796729 491.0910278330576Q847.1582799185323 480.23576491732393 857.3282358320101 475.00001942008873Q867.4707794653978 469.7916862029438 880.9027967096135 469.7916862029438L880.9027967096135 469.7916862029438Q901.2427085365691 469.7916862029438 913.6604714174463 481.633791201926Q926.1056465784136 493.47589620090815 926.1056465784136 519.3256763260013L926.1056465784136 519.3256763260013Q926.1056465784136 544.5723862891091 914.0716556187998 556.7160263690839Q902.0102523790957 568.8596664490588 880.9027967096135 568.8596664490588ZM880.9027967096135 560.9649297830706L880.9027967096135 560.9649297830706Q888.0025772529849 560.9649297830706 893.347971870581 557.6206316120617Q898.6659542080869 554.2489211609627 901.7361295781934 545.1754564510943Q904.7788926682097 536.101991741226 904.7788926682097 519.3256763260013L904.7788926682097 519.3256763260013Q904.7788926682097 502.54936091077644 901.6264804578325 493.5581330411789Q898.4740682474552 484.59431745167154 893.0464367895884 481.14037016030176Q887.6188053317215 477.6864228689319 880.9027967096135 477.6864228689319L880.9027967096135 477.6864228689319Q874.3786740481373 477.6864228689319 868.9510425902705 481.14037016030176Q863.5234111324036 484.59431745167154 860.2887620817557 493.5581330411789Q857.0267007510175 502.54936091077644 857.0267007510175 519.3256763260013L857.0267007510175 519.3256763260013Q857.0267007510175 535.9101057805944 860.0694638410338 544.9835704904626Q863.1396392111403 554.057035200331 868.5672706690071 557.5109824917008Q873.994902126874 560.9649297830706 880.9027967096135 560.9649297830706ZM940.7163918665096 476.8914667463151L940.7163918665096 476.8914667463151Q940.7163918665096 473.519756295216 942.7723128732774 472.6425633323284Q944.8556461601354 471.7653703694408 946.8293303266325 471.54607212871895L946.8293303266325 471.54607212871895L958.0683651636294 471.54607212871895Q958.8633212862463 452.79607254699715 963.4137597812256 443.2291867955046Q967.9367859961146 433.66230104401205 974.0497244562374 428.72809062776946L974.0497244562374 428.72809062776946Q979.7788909950968 424.1776521327902 986.7964346981973 421.5186609640372Q993.7865661212077 418.8596697952843 1002.6681448704444 418.8596697952843L1002.6681448704444 418.8596697952843Q1011.7690218604029 418.8596697952843 1016.8951182372771 422.3136170866541Q1022.0212146141514 425.7675643780239 1022.0212146141514 429.714932711018L1022.0212146141514 429.714932711018Q1022.0212146141514 432.86734492139516 1020.0475304476543 434.7587922476215Q1018.0738462811573 436.62282729375755 1014.1264779481633 436.62282729375755L1014.1264779481633 436.62282729375755Q1011.1659516984176 436.62282729375755 1009.0003815712889 434.6491431272605Q1006.8348114441603 432.6754589607635 1005.2448991989265 430.8936607548981L1005.2448991989265 430.8936607548981Q1003.8742851944148 429.11186254903276 1001.6813027871958 427.9331345051526Q999.5157326600671 426.7544064612724 995.7602502877047 426.7544064612724L995.7602502877047 426.7544064612724Q991.8128819547107 426.7544064612724 987.7832767814459 429.02962570876207Q983.7262593280909 431.30484495625166 981.0672681593379 437.30813429601346Q978.4082769905849 443.33883591586556 978.4082769905849 454.7697567134942L978.4082769905849 454.7697567134942L978.4082769905849 471.54607212871895L1000.310688782684 471.54607212871895Q1004.0661711550464 471.54607212871895 1005.6286711201899 472.944098413321Q1007.2185833654237 474.3147124178328 1007.2185833654237 475.90462466306656L1007.2185833654237 475.90462466306656Q1007.2185833654237 477.8783088295636 1005.4367851595582 479.4408087947071Q1003.6549869536929 481.0307210399408 1000.310688782684 481.0307210399408L1000.310688782684 481.0307210399408L978.4082769905849 481.0307210399408L978.4082769905849 555.4276492048427Q978.4082769905849 564.3092279540795 975.3381016204785 566.584447201569Q972.2953385304622 568.8596664490588 965.7712158689859 568.8596664490588L965.7712158689859 568.8596664490588Q961.028891413375 568.8596664490588 959.4663914482315 566.3925612409373Q957.8764792029979 563.9254560328161 957.8764792029979 559.5943157785587L957.8764792029979 559.5943157785587L957.8764792029979 481.0307210399408L947.0212162872642 481.0307210399408Q940.7163918665096 481.0307210399408 940.7163918665096 476.8914667463151ZM1010.3709955758009 476.8914667463151L1010.3709955758009 476.8914667463151Q1010.3709955758009 473.519756295216 1012.4543288626587 472.6425633323284Q1014.5102498694266 471.7653703694408 1016.4839340359235 471.54607212871895L1016.4839340359235 471.54607212871895L1027.7503811530107 471.54607212871895Q1028.5453372756276 452.79607254699715 1033.0683634905167 443.2291867955046Q1037.6188019854958 433.66230104401205 1043.7317404456187 428.72809062776946L1043.7317404456187 428.72809062776946Q1049.4609069844782 424.1776521327902 1056.4510384074883 421.5186609640372Q1063.468582110589 418.8596697952843 1072.3501608598256 418.8596697952843L1072.3501608598256 418.8596697952843Q1081.423625569694 418.8596697952843 1086.549721946568 422.3136170866541Q1091.7032306035326 425.7675643780239 1091.7032306035326 429.714932711018L1091.7032306035326 429.714932711018Q1091.7032306035326 432.86734492139516 1089.7295464370357 434.7587922476215Q1087.7558622705385 436.62282729375755 1083.8084939375444 436.62282729375755L1083.8084939375444 436.62282729375755Q1080.847967687799 436.62282729375755 1078.6549852805801 434.6491431272605Q1076.4894151534513 432.6754589607635 1074.926915188308 430.8936607548981L1074.926915188308 430.8936607548981Q1073.5288889037058 429.11186254903276 1071.3633187765772 427.9331345051526Q1069.1977486494484 426.7544064612724 1065.442266277086 426.7544064612724L1065.442266277086 426.7544064612724Q1061.494897944092 426.7544064612724 1057.437880490737 429.02962570876207Q1053.408275317472 431.30484495625166 1050.7492841487192 437.30813429601346Q1048.0628806998761 443.33883591586556 1048.0628806998761 454.7697567134942L1048.0628806998761 454.7697567134942L1048.0628806998761 471.54607212871895L1069.9927047720653 471.54607212871895Q1073.7207748643375 471.54607212871895 1075.310687109571 472.944098413321Q1076.9005993548049 474.3147124178328 1076.9005993548049 475.90462466306656L1076.9005993548049 475.90462466306656Q1076.9005993548049 477.8783088295636 1075.1188011489396 479.4408087947071Q1073.3370029430741 481.0307210399408 1069.9927047720653 481.0307210399408L1069.9927047720653 481.0307210399408L1048.0628806998761 481.0307210399408L1048.0628806998761 555.4276492048427Q1048.0628806998761 564.3092279540795 1045.0201176098599 566.584447201569Q1041.9499422397535 568.8596664490588 1035.4532318583672 568.8596664490588L1035.4532318583672 568.8596664490588Q1030.7109074027562 568.8596664490588 1029.1209951575227 566.3925612409373Q1027.5584951923793 563.9254560328161 1027.5584951923793 559.5943157785587L1027.5584951923793 559.5943157785587L1027.5584951923793 481.0307210399408L1016.7032322766454 481.0307210399408Q1010.3709955758009 481.0307210399408 1010.3709955758009 476.8914667463151ZM1157.218580019198 543.996728407214L1157.218580019198 543.996728407214Q1159.192264185695 541.8311582800854 1162.1527904354407 541.8311582800854L1162.1527904354407 541.8311582800854Q1163.7427026806743 541.8311582800854 1165.2229658055471 542.9002372036047Q1166.7032289304198 543.996728407214 1166.7032289304198 545.9704125737112L1166.7032289304198 545.9704125737112Q1166.7032289304198 549.5065967053517 1164.1264746019376 552.6864211958191L1164.1264746019376 552.6864211958191Q1158.5891940237098 559.3750175378368 1149.926913515195 564.1173419934478Q1141.23722072659 568.8596664490588 1127.8052034823743 568.8596664490588L1127.8052034823743 568.8596664490588Q1104.1209934844098 568.8596664490588 1092.6900726867811 556.030719366828Q1081.2317396090623 543.2017722845973 1081.2317396090623 521.6831324137615L1081.2317396090623 521.6831324137615Q1081.2317396090623 496.4364224506537 1093.0738446080445 483.1140543267988Q1104.9159496070267 469.7916862029438 1127.421431561111 469.7916862029438L1127.421431561111 469.7916862029438Q1144.9927030989525 469.7916862029438 1156.0398519753178 479.74234387569965Q1167.0870008516831 489.72041382854576 1167.0870008516831 509.4572554935161L1167.0870008516831 509.4572554935161Q1167.0870008516831 515.5701939536389 1163.4411675996816 517.3519921595042Q1159.7953343476802 519.1337903653696 1155.847966014686 519.1337903653696L1155.847966014686 519.1337903653696L1102.750379479898 519.1337903653696Q1102.5584935192664 520.3125184092498 1102.5584935192664 521.3815973327689Q1102.5584935192664 522.4780885363784 1102.5584935192664 523.464930619627L1102.5584935192664 523.464930619627Q1102.5584935192664 539.6381758728666 1108.9729670603817 549.9177809067053Q1115.387440601497 560.1699736604537 1129.9707736095029 560.1699736604537L1129.9707736095029 560.1699736604537Q1138.084808516213 560.1699736604537 1143.2109048930872 557.3190965310691Q1148.3370012699613 554.4408071215943 1151.5990626006994 550.6030879089612Q1154.8611239314378 546.7653686963281 1157.218580019198 543.996728407214ZM1126.2427035172307 477.6864228689319L1126.2427035172307 477.6864228689319Q1117.141826527272 477.6864228689319 1110.9466512268787 485.36186129419815Q1104.724063646395 493.0647119995546 1103.326037361793 510.82786949802795L1103.326037361793 510.82786949802795L1140.2503786433417 510.82786949802795Q1143.5946768143504 510.82786949802795 1145.266825899855 509.64914145414775Q1146.9663872654496 508.47041341026755 1146.9663872654496 505.09870295916846L1146.9663872654496 505.09870295916846Q1146.9663872654496 495.64146632803687 1143.8962118953432 489.52852786791414Q1140.8260365252365 483.3881771277011 1136.111124349716 480.53729999831654Q1131.368799894105 477.6864228689319 1126.2427035172307 477.6864228689319ZM1260.8369987602923 543.996728407214L1260.8369987602923 543.996728407214Q1262.8106829267892 541.8311582800854 1265.7712091765347 541.8311582800854L1265.7712091765347 541.8311582800854Q1267.3611214217685 541.8311582800854 1268.8413845466412 542.9002372036047Q1270.3216476715138 543.996728407214 1270.3216476715138 545.9704125737112L1270.3216476715138 545.9704125737112Q1270.3216476715138 549.5065967053517 1267.7448933430317 552.6864211958191L1267.7448933430317 552.6864211958191Q1262.207612764804 559.3750175378368 1253.5453322562894 564.1173419934478Q1244.8556394676843 568.8596664490588 1231.423622223468 568.8596664490588L1231.423622223468 568.8596664490588Q1207.739412225504 568.8596664490588 1196.3084914278752 556.030719366828Q1184.8501583501566 543.2017722845973 1184.8501583501566 521.6831324137615L1184.8501583501566 521.6831324137615Q1184.8501583501566 496.4364224506537 1196.6922633491386 483.1140543267988Q1208.5343683481208 469.7916862029438 1231.0398503022052 469.7916862029438L1231.0398503022052 469.7916862029438Q1248.6111218400467 469.7916862029438 1259.658270716412 479.74234387569965Q1270.7054195927772 489.72041382854576 1270.7054195927772 509.4572554935161L1270.7054195927772 509.4572554935161Q1270.7054195927772 515.5701939536389 1267.0595863407757 517.3519921595042Q1263.4137530887745 519.1337903653696 1259.4663847557804 519.1337903653696L1259.4663847557804 519.1337903653696L1206.3687982209922 519.1337903653696Q1206.1769122603605 520.3125184092498 1206.1769122603605 521.3815973327689Q1206.1769122603605 522.4780885363784 1206.1769122603605 523.464930619627L1206.1769122603605 523.464930619627Q1206.1769122603605 539.6381758728666 1212.5913858014758 549.9177809067053Q1219.005859342591 560.1699736604537 1233.589192350597 560.1699736604537L1233.589192350597 560.1699736604537Q1241.703227257307 560.1699736604537 1246.8293236341813 557.3190965310691Q1251.9554200110556 554.4408071215943 1255.2174813417937 550.6030879089612Q1258.4795426725318 546.7653686963281 1260.8369987602923 543.996728407214ZM1229.861122258325 477.6864228689319L1229.861122258325 477.6864228689319Q1220.7602452683664 477.6864228689319 1214.565069967973 485.36186129419815Q1208.342482387489 493.0647119995546 1206.9444561028872 510.82786949802795L1206.9444561028872 510.82786949802795L1243.8687973844358 510.82786949802795Q1247.2130955554446 510.82786949802795 1248.885244640949 509.64914145414775Q1250.5848060065437 508.47041341026755 1250.5848060065437 505.09870295916846L1250.5848060065437 505.09870295916846Q1250.5848060065437 495.64146632803687 1247.5146306364372 489.52852786791414Q1244.4444552663308 483.3881771277011 1239.72954309081 480.53729999831654Q1234.987218635199 477.6864228689319 1229.861122258325 477.6864228689319ZM1357.5475229186468 558.9912456165735L1357.5475229186468 438.78839742088627Q1357.5475229186468 433.2785291227487 1359.6308562055046 431.0855467155298Q1361.6867772122723 428.9199765884011 1366.2372157072518 428.9199765884011L1366.2372157072518 428.9199765884011L1403.5453289100637 428.9199765884011Q1413.4137497425488 428.9199765884011 1422.377565332056 430.5921256739055Q1431.3687932016537 432.29168703950023 1438.3589246246638 436.43094133312593Q1445.3764683277645 440.5701956267516 1449.4334857811195 447.9715112511155Q1453.4630909543844 455.37282687547935 1453.4630909543844 467.0230459138299L1453.4630909543844 467.0230459138299Q1453.4630909543844 477.08335270694676 1448.227345457149 485.08773849329583Q1443.0190122400045 493.0647119995546 1435.1242755740163 498.10857153615814Q1427.2295389080282 503.1250187926714 1418.9236180406865 504.5230450772735L1418.9236180406865 504.5230450772735L1451.681292748519 557.2094474107082Q1453.4630909543844 559.7862017391903 1453.4630909543844 562.3355437875823L1453.4630909543844 562.3355437875823Q1453.4630909543844 565.1041840766964 1450.9959857462632 566.9956314029225Q1448.528880538142 568.8596664490588 1443.4027841612676 568.8596664490588L1443.4027841612676 568.8596664490588Q1439.839187749537 568.8596664490588 1436.1933544975354 567.1875173635542Q1432.547521245534 565.5153682780499 1429.9707669170516 561.348701704334L1429.9707669170516 561.348701704334L1396.8293202879556 505.89365908178536L1378.8742768288507 505.89365908178536L1378.8742768288507 556.030719366828Q1378.8742768288507 563.1304999101992 1375.8041014587443 566.0087893196742Q1372.7339260886379 568.8596664490588 1366.6209876285152 568.8596664490588L1366.6209876285152 568.8596664490588Q1357.5475229186468 568.8596664490588 1357.5475229186468 558.9912456165735L1357.5475229186468 558.9912456165735ZM1401.5716447435666 439.3914675828715L1378.8742768288507 439.3914675828715L1378.8742768288507 495.4495803674052L1399.9817324983328 495.4495803674052Q1406.8896270810726 495.4495803674052 1414.0990567448048 492.6809400782913Q1421.308486408537 489.91229978917744 1426.2426968247796 483.3881771277011Q1431.1769072410223 476.8914667463151 1431.1769072410223 465.84431786994975L1431.1769072410223 465.84431786994975Q1431.1769072410223 456.55155491935955 1428.2163809912765 451.23357258185365Q1425.255854741531 445.8881779642575 1420.5957671261908 443.42107275613625Q1415.9630917909408 440.953967548015 1410.8369954140667 440.1864237054883Q1405.7108990371923 439.3914675828715 1401.5716447435666 439.3914675828715L1401.5716447435666 439.3914675828715ZM1519.7733964926665 568.8596664490588L1519.7733964926665 568.8596664490588Q1498.857826783816 568.8596664490588 1486.7141867038413 556.7160263690839Q1474.5979589039566 544.5723862891091 1474.5979589039566 519.3256763260013L1474.5979589039566 519.3256763260013Q1474.5979589039566 501.9462907487913 1480.299713162726 491.0910278330576Q1486.0288797015855 480.23576491732393 1496.1988356150632 475.00001942008873Q1506.368791528541 469.7916862029438 1519.7733964926665 469.7916862029438L1519.7733964926665 469.7916862029438Q1540.113308319622 469.7916862029438 1552.5584834805895 481.633791201926Q1564.9762463614668 493.47589620090815 1564.9762463614668 519.3256763260013L1564.9762463614668 519.3256763260013Q1564.9762463614668 544.5723862891091 1552.942255401853 556.7160263690839Q1540.908264442239 568.8596664490588 1519.7733964926665 568.8596664490588ZM1519.7733964926665 560.9649297830706L1519.7733964926665 560.9649297830706Q1526.9005893161282 560.9649297830706 1532.218571653634 557.6206316120617Q1537.53655399114 554.2489211609627 1540.6067293612464 545.1754564510943Q1543.6769047313528 536.101991741226 1543.6769047313528 519.3256763260013L1543.6769047313528 519.3256763260013Q1543.6769047313528 502.54936091077644 1540.4970802408857 493.5581330411789Q1537.3446680305083 484.59431745167154 1531.9170365726416 481.14037016030176Q1526.4894051147746 477.6864228689319 1519.7733964926665 477.6864228689319L1519.7733964926665 477.6864228689319Q1513.2766861112805 477.6864228689319 1507.8490546534138 481.14037016030176Q1502.4214231955468 484.59431745167154 1499.1593618648087 493.5581330411789Q1495.8973005340704 502.54936091077644 1495.8973005340704 519.3256763260013L1495.8973005340704 519.3256763260013Q1495.8973005340704 535.9101057805944 1498.9674759041773 544.9835704904626Q1502.0102389941933 554.057035200331 1507.4378704520602 557.5109824917008Q1512.865501909927 560.9649297830706 1519.7733964926665 560.9649297830706ZM1648.474051516327 550.3015528279686L1647.870981354342 550.109666867337Q1641.3742709729559 559.7862017391903 1632.9861132653436 564.3092279540795Q1624.5979555577314 568.8596664490588 1613.1396224800123 568.8596664490588L1613.1396224800123 568.8596664490588Q1598.145105270653 568.8596664490588 1590.743789646289 561.4583508246949Q1583.3424740219252 554.057035200331 1583.3424740219252 542.2149302013488L1583.3424740219252 542.2149302013488Q1583.3424740219252 535.9101057805944 1585.5080441490538 529.6875182001106Q1587.6736142761824 523.464930619627 1593.2108948544103 518.5307202033844Q1598.7207631525478 513.5965097871418 1608.3972980244014 510.63598353739627Q1618.0738328962548 507.6754572876507 1633.0683501056142 507.6754572876507L1633.0683501056142 507.6754572876507L1647.4872094330785 507.6754572876507L1647.4872094330785 502.1381767094229Q1647.4872094330785 488.5416857846656 1642.8545340978287 483.1140543267988Q1638.1944464824885 477.6864228689319 1627.7503677681084 477.6864228689319L1627.7503677681084 477.6864228689319Q1621.6374293079857 477.6864228689319 1617.388525893999 480.23576491732393Q1613.1396224800123 482.8125192458062 1610.3709821908983 485.96493145618336L1610.3709821908983 485.96493145618336Q1607.4104559411528 489.11734366656054 1604.4499296914073 491.0087909927869Q1601.4894034416618 492.872826038923 1598.3369912312846 492.872826038923L1598.3369912312846 492.872826038923Q1594.7733948195537 492.872826038923 1593.1012457340494 490.789492752065Q1591.429096648545 488.73357174529724 1591.429096648545 486.15681741681504L1591.429096648545 486.15681741681504Q1591.429096648545 482.0175631231893 1594.581508858922 479.550457915068Q1597.7339210692994 477.08335270694676 1602.2843595642785 475.10966854044966L1602.2843595642785 475.10966854044966Q1609.0003681863864 472.3410282513358 1617.1966399333674 471.05265108709466Q1625.3654994002577 469.7916862029438 1631.6977361011025 469.7916862029438L1631.6977361011025 469.7916862029438Q1646.3084813891985 469.7916862029438 1654.2032180551867 473.82129137620853Q1662.0979547211746 477.8783088295636 1665.140717811191 485.7730454955517Q1668.2108931812975 493.66778216153983 1668.2108931812975 505.50988716052206L1668.2108931812975 505.50988716052206L1668.2108931812975 559.5943157785587Q1668.2108931812975 563.9254560328161 1666.7306300564246 566.3925612409373Q1665.250366931552 568.8596664490588 1660.508042475941 568.8596664490588L1660.508042475941 568.8596664490588Q1653.9839198144648 568.8596664490588 1651.2426918054412 564.4188770744404Q1648.474051516327 559.978087699822 1648.474051516327 550.3015528279686L1648.474051516327 550.3015528279686ZM1647.6790953937102 515.9539658749022L1636.2207623159916 515.9539658749022Q1623.6111134744829 515.9539658749022 1616.483920651021 519.1337903653696Q1609.38414010765 522.2862025757468 1606.6154998185361 527.6041849132528Q1603.8742718095125 532.9495795308487 1603.8742718095125 539.4462899122349L1603.8742718095125 539.4462899122349Q1603.8742718095125 548.5197546221032 1608.589183985033 552.0833510338339Q1613.331508440644 555.6469474455646 1621.0343591460005 555.6469474455646L1621.0343591460005 555.6469474455646Q1625.9685695622431 555.6469474455646 1632.1911571427268 553.1798422374434Q1638.4137447232104 550.7127370293222 1643.0464200584602 545.5592283723577Q1647.6790953937102 540.4331319954833 1647.6790953937102 532.5383953294952L1647.6790953937102 532.5383953294952L1647.6790953937102 515.9539658749022ZM1751.4894000954364 544.791684529831L1751.4894000954364 544.791684529831Q1751.4894000954364 538.87063203034 1748.0354528040662 535.3070356186092Q1744.5815055126964 531.7434392068784 1738.6604530132054 529.1940971584863Q1732.7394005137144 526.6173428300042 1725.6396199703431 524.2598867422439L1725.6396199703431 524.2598867422439Q1716.5661552604747 521.1074745318666 1709.3567255967425 517.8454132011284Q1702.1472959330104 514.5833518703903 1697.8983925190237 509.53949233378677Q1693.6769013851274 504.5230450772735 1693.6769013851274 496.0252382493002L1693.6769013851274 496.0252382493002Q1693.6769013851274 487.7467296620487 1697.6242697181215 482.5109841648136Q1701.5716380511153 477.2752386675784 1707.5749273908773 474.5065983784645Q1713.6056290107292 471.7653703694408 1719.7185674708521 470.77852828619234Q1725.8315059309748 469.7916862029438 1730.1900584653224 469.7916862029438L1730.1900584653224 469.7916862029438Q1737.6736109299572 469.7916862029438 1744.3896195520651 470.97041424682396Q1751.105628174173 472.14914229070416 1755.8479526297838 474.72589661918636L1755.8479526297838 474.72589661918636Q1759.7953209627776 476.6995807856834 1763.029970013426 480.04387895669225Q1766.2920313441641 483.3881771277011 1766.2920313441641 487.9386156226804L1766.2920313441641 487.9386156226804Q1766.2920313441641 491.0910278330576 1763.9345752564036 493.0647119995546Q1761.549706888553 495.03839616605165 1758.5891806388076 495.03839616605165L1758.5891806388076 495.03839616605165Q1754.25804038455 495.03839616605165 1751.90058429679 493.0647119995546Q1749.5157159289392 491.0910278330576 1747.9532159637956 487.9386156226804L1747.9532159637956 487.9386156226804Q1745.979531797299 483.9912472896863 1742.1144003045752 480.83883507930915Q1738.276681091942 477.6864228689319 1730.381944425954 477.6864228689319L1730.381944425954 477.6864228689319Q1723.665935803846 477.6864228689319 1718.5398394269719 481.14037016030176Q1713.4137430500978 484.59431745167154 1713.4137430500978 492.2697558769378L1713.4137430500978 492.2697558769378Q1713.4137430500978 497.6151504945339 1716.5661552604747 500.95944866554277Q1719.7185674708521 504.33115911664186 1725.1461989287188 506.6886152044022Q1730.5738303865858 509.04607129216254 1737.2898390086934 511.4309396600131L1737.2898390086934 511.4309396600131Q1745.3764616353133 514.1995799491269 1753.2711983013014 517.6535272404968Q1761.16593496729 521.1074745318666 1766.4016804645248 526.2335709087408Q1771.63742596176 531.3596672856152 1771.63742596176 539.4462899122349L1771.63742596176 539.4462899122349Q1771.63742596176 548.3278686614715 1766.4016804645248 554.9342281632184Q1761.16593496729 561.5679999450558 1751.9828211370605 565.2138331970573Q1742.799707306831 568.8596664490588 1730.7657163472172 568.8596664490588L1730.7657163472172 568.8596664490588Q1721.692251637349 568.8596664490588 1714.1812868926243 566.9956314029225Q1706.6977344279899 565.1041840766964 1701.9554099723787 562.5548420283043L1701.9554099723787 562.5548420283043Q1698.0080416393848 560.3618596210854 1695.15716451 557.1272105704375Q1692.2788751005255 553.8651492396993 1692.2788751005255 549.5065967053517L1692.2788751005255 549.5065967053517Q1692.2788751005255 546.1622985343429 1694.8556294290074 544.1886143678457Q1697.4049714773994 542.2149302013488 1699.9817258058818 542.2149302013488L1699.9817258058818 542.2149302013488Q1704.3128660601392 542.2149302013488 1706.8896203886216 544.0789652474848Q1709.4663747171035 545.9704125737112 1710.8369887216154 549.3147107447201L1710.8369887216154 549.3147107447201Q1712.8106728881125 553.2620790777141 1717.0595763020992 557.1272105704375Q1721.308479716086 560.9649297830706 1731.176900548571 560.9649297830706L1731.176900548571 560.9649297830706Q1739.0716372145591 560.9649297830706 1745.2668125149526 557.2094474107082Q1751.4894000954364 553.4539650383458 1751.4894000954364 544.791684529831ZM1831.6154947991977 568.8596664490588L1831.6154947991977 568.8596664490588Q1819.7733898002157 568.8596664490588 1813.2766794188292 564.720412155433Q1806.752556757353 560.5811578618072 1804.2032147089608 553.5636141587067Q1801.6264603804789 546.5460704556061 1801.6264603804789 537.6644917063695L1801.6264603804789 537.6644917063695L1801.6264603804789 479.4408087947071L1789.7843553814964 479.4408087947071Q1784.6582590046223 479.4408087947071 1784.6582590046223 474.91778257981804L1784.6582590046223 474.91778257981804Q1784.6582590046223 472.3410282513358 1787.2076010530145 471.35418616808727Q1789.7843553814964 470.36734408483875 1793.8413728348514 468.5033090387027Q1797.8709780081167 466.61186171247635 1802.4214165030958 461.67765129623376L1802.4214165030958 461.67765129623376Q1807.1637409587065 456.7434408799912 1809.027776004843 453.01537078771906Q1810.891811050979 449.2598884153566 1812.3720741758516 447.09431828822795Q1813.8523373007242 444.901335881009 1816.81286355047 444.901335881009L1816.81286355047 444.901335881009Q1820.3764599622004 444.901335881009 1821.2536529250883 447.47809020949126Q1822.158258168066 450.05484453797345 1822.158258168066 455.7565987967427L1822.158258168066 455.7565987967427L1822.158258168066 469.7916862029438L1846.034354126662 469.7916862029438Q1848.1999242537909 469.7916862029438 1849.4883014180318 471.27194932781657Q1850.7766785822732 472.7522124526893 1850.7766785822732 474.72589661918636L1850.7766785822732 474.72589661918636Q1850.7766785822732 476.48028254496154 1849.4883014180318 477.9605456698343Q1848.1999242537909 479.4408087947071 1846.034354126662 479.4408087947071L1846.034354126662 479.4408087947071L1822.158258168066 479.4408087947071L1822.158258168066 542.2149302013488Q1822.158258168066 552.4671229550972 1825.995977380699 556.3322544478206Q1829.8611088734224 560.1699736604537 1834.0003631670484 560.1699736604537L1834.0003631670484 560.1699736604537Q1839.9214156665394 560.1699736604537 1843.0738278769168 557.4013333713399Q1846.2262400872937 554.6601053623162 1848.11768741352 550.9046229899539Q1849.9817224596563 547.1491406175913 1851.8457575057923 544.3805003284774Q1853.7372048320185 541.6118600393636 1857.0815030030271 541.6118600393636L1857.0815030030271 541.6118600393636Q1862.2075993799017 541.6118600393636 1862.2075993799017 546.3541844949746L1862.2075993799017 546.3541844949746Q1862.2075993799017 547.9440967402081 1861.2207572966531 550.3015528279686Q1860.2339152134045 552.6864211958191 1859.247073130156 553.8651492396993L1859.247073130156 553.8651492396993Q1854.1209767532819 561.5679999450558 1846.829310249279 565.2138331970573Q1839.5102314651858 568.8596664490588 1831.6154947991977 568.8596664490588ZM1950.0365447890194 543.996728407214L1950.0365447890194 543.996728407214Q1952.0102289555166 541.8311582800854 1954.9707552052623 541.8311582800854L1954.9707552052623 541.8311582800854Q1956.5606674504957 541.8311582800854 1958.0409305753687 542.9002372036047Q1959.5211937002414 543.996728407214 1959.5211937002414 545.9704125737112L1959.5211937002414 545.9704125737112Q1959.5211937002414 549.5065967053517 1956.944439371759 552.6864211958191L1956.944439371759 552.6864211958191Q1951.4345710736216 559.3750175378368 1942.7448782850165 564.1173419934478Q1934.0551854964115 568.8596664490588 1920.6505805322859 568.8596664490588L1920.6505805322859 568.8596664490588Q1896.9663705343214 568.8596664490588 1885.5080374566028 556.030719366828Q1874.0497043788837 543.2017722845973 1874.0497043788837 521.6831324137615L1874.0497043788837 521.6831324137615Q1874.0497043788837 496.4364224506537 1885.8918093778661 483.1140543267988Q1897.7339143768481 469.7916862029438 1920.2393963309323 469.7916862029438L1920.2393963309323 469.7916862029438Q1937.810667868774 469.7916862029438 1948.8578167451392 479.74234387569965Q1959.9049656215047 489.72041382854576 1959.9049656215047 509.4572554935161L1959.9049656215047 509.4572554935161Q1959.9049656215047 515.5701939536389 1956.2591323695033 517.3519921595042Q1952.6132991175018 519.1337903653696 1948.6659307845075 519.1337903653696L1948.6659307845075 519.1337903653696L1895.5683442497193 519.1337903653696Q1895.3764582890876 520.3125184092498 1895.3764582890876 521.3815973327689Q1895.3764582890876 522.4780885363784 1895.3764582890876 523.464930619627L1895.3764582890876 523.464930619627Q1895.3764582890876 539.6381758728666 1901.7909318302031 549.9177809067053Q1908.2054053713186 560.1699736604537 1922.8161506594147 560.1699736604537L1922.8161506594147 560.1699736604537Q1930.902773286034 560.1699736604537 1936.0288696629086 557.3190965310691Q1941.1549660397827 554.4408071215943 1944.4170273705208 550.6030879089612Q1947.679088701259 546.7653686963281 1950.0365447890194 543.996728407214ZM1919.060668287052 477.6864228689319L1919.060668287052 477.6864228689319Q1909.9872035771841 477.6864228689319 1903.7646159967003 485.36186129419815Q1897.542028416217 493.0647119995546 1896.1714144117045 510.82786949802795L1896.1714144117045 510.82786949802795L1933.0683434131633 510.82786949802795Q1936.4400538642622 510.82786949802795 1938.1122029497665 509.64914145414775Q1939.7843520352708 508.47041341026755 1939.7843520352708 505.09870295916846L1939.7843520352708 505.09870295916846Q1939.7843520352708 495.64146632803687 1936.7141766651644 489.52852786791414Q1933.6714135751486 483.3881771277011 1928.9290891195374 480.53729999831654Q1924.1867646639266 477.6864228689319 1919.060668287052 477.6864228689319ZM2047.5420250699908 478.2620807508269L2047.5420250699908 478.2620807508269Q2047.5420250699908 481.82567716255767 2045.8698759844865 483.8815981693254Q2044.1977268989822 485.96493145618336 2039.8391743646343 485.96493145618336L2039.8391743646343 485.96493145618336L2033.3424639832483 485.96493145618336Q2022.6790870281466 485.96493145618336 2016.264613487031 489.61076470818483Q2009.8501399459155 493.2565979601863 2006.999262816531 498.98576449904573Q2004.1209734070562 504.71493103790516 2004.1209734070562 510.63598353739627L2004.1209734070562 510.63598353739627L2004.1209734070562 554.8519913229478Q2004.1209734070562 563.7335700721844 2001.07821031704 566.2829121205764Q1998.0080349469335 568.8596664490588 1991.4839122854573 568.8596664490588L1991.4839122854573 568.8596664490588Q1986.7690001099363 568.8596664490588 1985.179087864703 566.3925612409373Q1983.5891756194692 563.9254560328161 1983.5891756194692 559.5943157785587L1983.5891756194692 559.5943157785587L1983.5891756194692 478.2620807508269Q1983.5891756194692 473.519756295216 1985.672508906327 471.6557212490799Q1987.755842193185 469.7916862029438 1992.086982447442 469.7916862029438L1992.086982447442 469.7916862029438Q1997.4049647849483 469.7916862029438 2000.5847892754155 473.9309404965695Q2003.7372014857929 478.0701947901952 2003.7372014857929 486.75988757880026L2003.7372014857929 486.75988757880026L2003.7372014857929 491.6940979950428L2004.1209734070562 491.6940979950428Q2006.505841774907 487.9386156226804 2010.5354469481713 482.8125192458062Q2014.5924644015267 477.6864228689319 2020.897288822281 473.73905453593784Q2027.2295255231256 469.7916862029438 2035.8918060316405 469.7916862029438L2035.8918060316405 469.7916862029438L2038.2766743994907 469.7916862029438Q2043.4027707763653 469.7916862029438 2045.3764549428624 472.0394931703432Q2047.3501391093591 474.3147124178328 2047.5420250699908 478.2620807508269ZM2114.64728673089 544.791684529831L2114.64728673089 544.791684529831Q2114.64728673089 538.87063203034 2111.1933394395205 535.3070356186092Q2107.7393921481503 531.7434392068784 2101.8183396486593 529.1940971584863Q2095.8972871491683 526.6173428300042 2088.797506605797 524.2598867422439L2088.797506605797 524.2598867422439Q2079.7240418959286 521.1074745318666 2072.5146122321967 517.8454132011284Q2065.3051825684643 514.5833518703903 2061.0562791544776 509.53949233378677Q2056.834788020581 504.5230450772735 2056.834788020581 496.0252382493002L2056.834788020581 496.0252382493002Q2056.834788020581 487.7467296620487 2060.7821563535754 482.5109841648136Q2064.729524686569 477.2752386675784 2070.732814026331 474.5065983784645Q2076.763515646183 471.7653703694408 2082.8764541063056 470.77852828619234Q2088.9893925664287 469.7916862029438 2093.3479451007765 469.7916862029438L2093.3479451007765 469.7916862029438Q2100.8314975654107 469.7916862029438 2107.5475061875186 470.97041424682396Q2114.2635148096265 472.14914229070416 2119.0058392652377 474.72589661918636L2119.0058392652377 474.72589661918636Q2122.9532075982315 476.6995807856834 2126.1878566488795 480.04387895669225Q2129.4499179796176 483.3881771277011 2129.4499179796176 487.9386156226804L2129.4499179796176 487.9386156226804Q2129.4499179796176 491.0910278330576 2127.0924618918575 493.0647119995546Q2124.707593524007 495.03839616605165 2121.7470672742616 495.03839616605165L2121.7470672742616 495.03839616605165Q2117.415927020004 495.03839616605165 2115.0584709322434 493.0647119995546Q2112.673602564393 491.0910278330576 2111.1111025992495 487.9386156226804L2111.1111025992495 487.9386156226804Q2109.1374184327524 483.9912472896863 2105.272286940029 480.83883507930915Q2101.434567727396 477.6864228689319 2093.5398310614078 477.6864228689319L2093.5398310614078 477.6864228689319Q2086.8238224393 477.6864228689319 2081.6977260624258 481.14037016030176Q2076.5716296855517 484.59431745167154 2076.5716296855517 492.2697558769378L2076.5716296855517 492.2697558769378Q2076.5716296855517 497.6151504945339 2079.7240418959286 500.95944866554277Q2082.8764541063056 504.33115911664186 2088.3040855641725 506.6886152044022Q2093.7317170220394 509.04607129216254 2100.447725644148 511.4309396600131L2100.447725644148 511.4309396600131Q2108.534348270767 514.1995799491269 2116.4290849367553 517.6535272404968Q2124.3238216027435 521.1074745318666 2129.5595670999787 526.2335709087408Q2134.795312597214 531.3596672856152 2134.795312597214 539.4462899122349L2134.795312597214 539.4462899122349Q2134.795312597214 548.3278686614715 2129.5595670999787 554.9342281632184Q2124.3238216027435 561.5679999450558 2115.1407077725144 565.2138331970573Q2105.9575939422853 568.8596664490588 2093.923602982671 568.8596664490588L2093.923602982671 568.8596664490588Q2084.850138272803 568.8596664490588 2077.339173528078 566.9956314029225Q2069.8556210634433 565.1041840766964 2065.1132966078326 562.5548420283043L2065.1132966078326 562.5548420283043Q2061.1659282748387 560.3618596210854 2058.3150511454537 557.1272105704375Q2055.436761735979 553.8651492396993 2055.436761735979 549.5065967053517L2055.436761735979 549.5065967053517Q2055.436761735979 546.1622985343429 2058.0135160644613 544.1886143678457Q2060.562858112853 542.2149302013488 2063.1396124413354 542.2149302013488L2063.1396124413354 542.2149302013488Q2067.470752695593 542.2149302013488 2070.0475070240755 544.0789652474848Q2072.6242613525574 545.9704125737112 2073.9948753570693 549.3147107447201L2073.9948753570693 549.3147107447201Q2075.9685595235665 553.2620790777141 2080.2174629375527 557.1272105704375Q2084.46636635154 560.9649297830706 2094.3347871840247 560.9649297830706L2094.3347871840247 560.9649297830706Q2102.229523850013 560.9649297830706 2108.4246991504065 557.2094474107082Q2114.64728673089 553.4539650383458 2114.64728673089 544.791684529831Z " fill="#006838" transform="matrix(0.4098753292461891,0,0,0.4098753292461892,0,97.5791028805199)"/></g></svg>